<svg width="20" height="20" viewBox="0 0 20 20" fill="none" xmlns="http://www.w3.org/2000/svg">
    <path d="M2 8H18V14C18 15.1046 17.1046 16 16 16H4C2.89543 16 2 15.1046 2 14V8Z" fill="black"/>
    <path d="M2 6C2 4.89543 2.89543 4 4 4H16C17.1046 4 18 4.89543 18 6V8C17.4144 7.98306 16.7627 7.99896 16.1691 7.99895L2 8V6Z" fill="#001F8B"/>
    <path d="M5.25285 6.75196L5.31144 6.86426C5.37558 6.97535 5.45317 7.02437 5.55754 7.09668C5.43768 7.09822 5.26504 7.08957 5.15324 7.05079C5.15908 7.17179 5.19314 7.53311 5.04581 7.57617C4.89752 7.54357 4.92357 7.15892 4.93156 7.04981C4.76796 7.09993 4.64514 7.09338 4.47452 7.09571C4.67682 6.99509 4.74114 6.96221 4.83488 6.75489C4.90454 6.76641 5.19383 6.76955 5.25285 6.75196ZM10.2226 6.75196L10.2812 6.86426C10.3453 6.97535 10.4229 7.02437 10.5273 7.09668C10.4074 7.09822 10.2348 7.08957 10.123 7.05079C10.1288 7.17179 10.1629 7.53311 10.0156 7.57617C9.86728 7.54357 9.89333 7.15892 9.90132 7.04981C9.73773 7.09993 9.6149 7.09338 9.44428 7.09571C9.64658 6.99509 9.7109 6.96221 9.80464 6.75489C9.8743 6.76641 10.1636 6.76955 10.2226 6.75196ZM15.1885 6.7422L15.2471 6.8545C15.3112 6.96554 15.3888 7.01464 15.4932 7.08692C15.3733 7.08845 15.2007 7.07981 15.0889 7.04102C15.0947 7.16193 15.1288 7.52333 14.9814 7.56641C14.8331 7.53372 14.8592 7.14897 14.8672 7.04004C14.7035 7.09019 14.5808 7.08361 14.4101 7.08594C14.6125 6.98529 14.6767 6.95262 14.7705 6.74512C14.8402 6.75665 15.1296 6.75981 15.1885 6.7422ZM4.88566 4.58304C4.93308 4.52631 5.04037 4.46098 5.10929 4.52932C5.56861 4.98811 5.41198 5.3308 5.26554 5.8633C5.22858 6.0019 5.19912 6.14288 5.17667 6.28419C5.1675 6.3454 5.15082 6.47598 5.15812 6.53614C5.15909 6.56743 5.15478 6.63168 5.15714 6.65138L5.21671 6.6504C5.2589 6.65109 5.30096 6.65339 5.34269 6.64747C5.38415 6.64732 5.41324 6.64354 5.44718 6.66505L5.45402 6.68165C5.42507 6.71033 5.40661 6.7078 5.36222 6.71095C5.32263 6.72141 5.28138 6.71078 5.25089 6.73243C5.26614 6.72153 5.2835 6.71908 5.30265 6.71778C5.32184 6.7164 5.3422 6.71624 5.36222 6.71095C5.29799 6.69896 4.83976 6.71166 4.7128 6.70606C4.67954 6.70373 4.6616 6.70537 4.63663 6.6836L4.64249 6.66798C4.66999 6.65504 4.69421 6.6499 4.71866 6.64845L4.79874 6.6504C4.91166 6.65136 5.04582 6.65538 5.15714 6.65138C5.15478 6.63168 5.15909 6.56743 5.15812 6.53614L5.14835 6.56934C5.10983 6.60325 4.99793 6.59167 4.93253 6.59376C4.92481 6.48104 4.89584 6.30702 4.86906 6.20021C4.77025 5.61528 4.4263 5.133 4.88566 4.58304ZM9.85542 4.58304C9.90284 4.52631 10.0101 4.46098 10.0791 4.52932C10.5384 4.98811 10.3817 5.3308 10.2353 5.8633C10.1983 6.0019 10.1689 6.14288 10.1464 6.28419C10.1373 6.3454 10.1206 6.47598 10.1279 6.53614C10.1289 6.56743 10.1245 6.63168 10.1269 6.65138L10.1865 6.6504C10.2287 6.65109 10.2707 6.65339 10.3125 6.64747C10.3539 6.64732 10.383 6.64354 10.4169 6.66505L10.4238 6.68165C10.3948 6.71033 10.3764 6.7078 10.332 6.71095C10.2924 6.72141 10.2511 6.71078 10.2207 6.73243C10.2359 6.72153 10.2533 6.71908 10.2724 6.71778C10.2916 6.7164 10.312 6.71624 10.332 6.71095C10.2677 6.69896 9.80952 6.71166 9.68257 6.70606C9.6493 6.70373 9.63136 6.70537 9.60639 6.6836L9.61225 6.66798C9.63976 6.65504 9.66397 6.6499 9.68843 6.64845L9.7685 6.6504C9.88142 6.65136 10.0156 6.65538 10.1269 6.65138C10.1245 6.63168 10.1289 6.56743 10.1279 6.53614L10.1181 6.56934C10.0796 6.60325 9.96769 6.59167 9.90229 6.59376C9.89458 6.48104 9.86561 6.30702 9.83882 6.20021C9.74001 5.61528 9.39607 5.133 9.85542 4.58304ZM14.8213 4.57327C14.8687 4.51658 14.976 4.45141 15.0449 4.51956C15.5042 4.97833 15.3476 5.32106 15.2012 5.85353C15.1642 5.99216 15.1347 6.13309 15.1123 6.27443C15.1031 6.33551 15.0865 6.46609 15.0937 6.52638C15.0947 6.55754 15.0904 6.6217 15.0928 6.64161L15.1523 6.64063C15.1945 6.64132 15.2366 6.64363 15.2783 6.6377C15.3197 6.63756 15.3489 6.63385 15.3828 6.65528L15.3896 6.67188C15.3606 6.7007 15.3423 6.69803 15.2978 6.70118C15.2582 6.71167 15.217 6.701 15.1865 6.72266C15.2018 6.71176 15.2191 6.70931 15.2383 6.70802C15.2575 6.70663 15.2778 6.70648 15.2978 6.70118C15.2334 6.68921 14.7753 6.70189 14.6484 6.6963C14.6152 6.69397 14.5972 6.6956 14.5722 6.67384L14.5781 6.65821C14.6056 6.64527 14.6298 6.64013 14.6543 6.63868L14.7344 6.64063C14.8473 6.6416 14.9814 6.64561 15.0928 6.64161C15.0904 6.6217 15.0947 6.55754 15.0937 6.52638L15.084 6.55958C15.0456 6.59361 14.9336 6.5819 14.8681 6.58399C14.8604 6.47126 14.8314 6.29721 14.8047 6.19044C14.7058 5.60555 14.3618 5.12323 14.8213 4.57327ZM3.84756 5.63088C3.93823 5.46695 4.18232 5.47019 4.34073 5.56252C4.59814 5.71294 4.72851 5.98355 4.80656 6.25197C4.82673 6.34018 4.8793 6.48991 4.83781 6.57423C4.83062 6.58851 4.81367 6.59502 4.79484 6.59767L4.74015 6.59962C4.66074 6.43088 4.61266 6.16764 4.39347 6.08693C4.32972 6.06376 4.25735 6.09473 4.24307 6.16115C4.22179 6.2617 4.25376 6.34165 4.30851 6.42579C3.94794 6.33588 3.63919 6.00833 3.84756 5.63088ZM8.81733 5.63088C8.90799 5.46695 9.15208 5.47019 9.31049 5.56252C9.5679 5.71294 9.69827 5.98355 9.77632 6.25197C9.79649 6.34018 9.84906 6.48991 9.80757 6.57423C9.80038 6.58851 9.78343 6.59502 9.7646 6.59767L9.70991 6.59962C9.63051 6.43088 9.58242 6.16764 9.36323 6.08693C9.29948 6.06376 9.22711 6.09473 9.21284 6.16115C9.19155 6.2617 9.22352 6.34165 9.27827 6.42579C8.9177 6.33588 8.60895 6.00833 8.81733 5.63088ZM5.99016 5.49904C6.07687 5.50692 6.15706 5.5481 6.21086 5.61232C6.38835 5.82387 6.26909 6.14863 6.05852 6.29982C5.97648 6.35857 5.87486 6.39286 5.77922 6.42677C5.84696 6.3146 5.90366 6.01906 5.66691 6.09279C5.50217 6.14463 5.38161 6.44918 5.35734 6.59571C5.31694 6.5926 5.27604 6.60216 5.24308 6.59083L5.21281 6.5713C5.23716 6.28231 5.38637 5.83185 5.63078 5.63478C5.72637 5.55785 5.86042 5.48772 5.99016 5.49904ZM10.9599 5.49904C11.0466 5.50692 11.1268 5.5481 11.1806 5.61232C11.3581 5.82387 11.2389 6.14863 11.0283 6.29982C10.9462 6.35857 10.8446 6.39286 10.749 6.42677C10.8167 6.3146 10.8734 6.01906 10.6367 6.09279C10.4719 6.14463 10.3514 6.44918 10.3271 6.59571C10.2867 6.5926 10.2458 6.60216 10.2128 6.59083L10.1826 6.5713C10.2069 6.28231 10.3561 5.83185 10.6005 5.63478C10.6961 5.55785 10.8302 5.48772 10.9599 5.49904ZM13.7832 5.62111C13.8738 5.45722 14.1179 5.46048 14.2763 5.55275C14.5337 5.70314 14.6641 5.97385 14.7422 6.2422C14.7623 6.33041 14.8149 6.48014 14.7734 6.56446C14.7663 6.57888 14.7494 6.58524 14.7305 6.5879L14.6758 6.58985C14.5964 6.42111 14.5482 6.15784 14.3291 6.07716C14.2654 6.05406 14.193 6.08504 14.1787 6.15138C14.1573 6.25195 14.1894 6.33191 14.2441 6.41603C13.8835 6.32608 13.5746 5.99862 13.7832 5.62111ZM15.9258 5.48928C16.0124 5.49715 16.0927 5.53842 16.1465 5.60256C16.324 5.8141 16.2047 6.13886 15.9941 6.29005C15.9121 6.34886 15.8105 6.38308 15.7148 6.417C15.7826 6.30484 15.8393 6.00929 15.6025 6.08302C15.4378 6.13479 15.3173 6.43936 15.293 6.58595C15.2526 6.58284 15.2116 6.59239 15.1787 6.58106L15.1484 6.56153C15.1728 6.27249 15.3219 5.82201 15.5664 5.62502C15.662 5.54809 15.796 5.47796 15.9258 5.48928Z" fill="#FDDE03"/>
    <path d="M9.94167 8.79995C9.77016 9.34838 9.93087 9.36543 10.2404 9.7627C10.2221 9.37286 10.3271 9.13249 10.6391 8.86468C10.5241 9.08622 10.4474 9.24078 10.5351 9.49614C10.579 9.62414 10.6708 9.73727 10.7247 9.85978C10.8442 9.41921 10.9083 9.30354 11.3251 9.05526C10.9802 9.48008 11.0618 9.56704 11.1923 10.0505C11.2998 9.6792 11.5734 9.51876 11.9293 9.38168C11.5062 9.78934 11.5753 9.75655 11.5794 10.296C11.851 10.0382 12.0072 9.8375 12.44 9.83529C12.4599 9.83522 12.4798 9.8354 12.4997 9.83583C12.4037 9.8651 12.319 9.88619 12.2383 9.94572C12.0023 10.1198 11.9538 10.3961 11.9317 10.6581C12.2273 10.379 12.5028 10.3247 12.9032 10.3373C12.4048 10.5231 12.35 10.5713 12.18 11.0697C12.5245 10.8637 12.8195 10.8092 13.2073 10.9488C12.7783 10.9789 12.5835 11.0682 12.3936 11.4488C12.3883 11.4596 12.342 11.5062 12.3305 11.5175C12.6997 11.36 13.0372 11.4068 13.3707 11.6039C13.0376 11.5377 12.8578 11.5657 12.5956 11.7793C12.5138 11.8459 12.4796 11.9108 12.4128 11.9783C12.8591 11.9428 13.0659 11.9858 13.3867 12.277C12.912 12.072 12.7469 12.1747 12.355 12.4502C12.6289 12.4329 12.9699 12.5911 13.154 12.7748C13.1764 12.8112 13.1949 12.8386 13.2204 12.8731L13.2158 12.8875C12.9609 12.7891 12.8232 12.6797 12.5073 12.7703C12.4896 12.7779 12.465 12.7876 12.4485 12.7961L12.3644 12.8311C12.2959 12.8596 12.2578 12.8767 12.1938 12.9129C12.3246 12.9266 12.4122 12.9569 12.5307 13.0139C12.6012 13.0538 12.6486 13.0875 12.7143 13.1346C12.7556 13.1801 12.7991 13.2258 12.8351 13.275C12.8533 13.3048 12.8747 13.3425 12.8945 13.3704C12.9146 13.4026 12.945 13.4575 12.9436 13.495C12.8976 13.467 12.8777 13.4476 12.8392 13.4123C12.7059 13.4061 12.5762 13.3279 12.4652 13.2645C12.3938 13.2498 12.3313 13.2479 12.2592 13.2564C12.2756 13.2751 12.2787 13.2825 12.3022 13.2891C12.2631 13.2996 12.2245 13.3001 12.2069 13.3364C12.1357 13.3183 12.1505 13.2838 12.0597 13.288C12.0311 13.2922 12.0151 13.2916 11.994 13.3096C12.0119 13.3382 12.0815 13.3624 12.1171 13.383C12.1718 13.4146 12.2117 13.46 12.2562 13.4982C12.4791 13.6896 12.4925 13.8072 12.5689 14.0685C12.5114 14.0022 12.4861 13.9442 12.4109 13.8691C12.1655 13.624 11.9533 13.6595 11.6274 13.6472C11.668 13.6791 11.7065 13.7132 11.7427 13.7494C11.994 13.9989 12.0604 14.2159 12.0496 14.5461C11.9095 14.1042 11.6737 13.9967 11.2044 13.9301C11.5152 14.211 11.5129 14.5198 11.459 14.8902C11.4085 14.6235 11.345 14.4017 11.0654 14.2627C10.9683 14.2144 10.8651 14.1854 10.7714 14.1293C10.7889 14.1619 10.8047 14.1954 10.8187 14.2295C10.9439 14.5295 10.9144 14.8064 10.7793 15.0955C10.7925 14.954 10.8041 14.8254 10.7457 14.6903C10.6694 14.5136 10.4649 14.3196 10.2791 14.2436L10.2812 14.2506C10.3888 14.63 10.2834 14.8724 10.0822 15.1968C10.2146 14.68 10.1211 14.6186 9.77828 14.2265C9.8004 14.6644 9.67251 14.821 9.37294 15.1308C9.40189 15.0506 9.45515 14.9743 9.48085 14.8834C9.57837 14.5387 9.43452 14.3987 9.28479 14.138C9.22948 14.4679 9.04032 14.7709 8.7101 14.916C9.01525 14.5736 8.94544 14.3323 8.82123 13.9414C8.77019 14.1128 8.71041 14.1895 8.58639 14.32C8.42505 14.4899 8.32077 14.528 8.09618 14.5904C8.50269 14.2537 8.45511 14.142 8.43421 13.6694C8.40093 13.7087 8.36721 13.7476 8.33305 13.7863C8.09812 14.0505 7.8654 14.1471 7.50551 14.1775C7.81522 14.0493 7.99373 13.9017 8.05083 13.5725C8.06534 13.4889 8.07136 13.404 8.09178 13.3215C7.66002 13.6411 7.69626 13.6416 7.1213 13.6546C7.30069 13.5812 7.41245 13.5767 7.55781 13.4359C7.72139 13.2776 7.74993 13.1231 7.83942 12.9293C7.82144 12.9392 7.80319 12.9488 7.78468 12.9579C7.41896 13.1385 7.17972 13.1444 6.80154 13.0342C6.92446 13.0156 7.02302 13.0277 7.15071 12.9925C7.42237 12.9175 7.54574 12.683 7.66897 12.4622C7.44579 12.5846 7.13231 12.5964 6.89479 12.5046C6.80507 12.4699 6.71079 12.4158 6.62109 12.3751C6.90569 12.4252 7.13801 12.4474 7.36906 12.2506C7.4573 12.1754 7.51831 12.0907 7.60273 12.0155C7.46001 12.0388 7.37146 12.035 7.22684 12.0286L7.1409 12.0103C7.04277 11.9799 6.97752 11.9593 6.88281 11.9179L6.81881 11.8716C6.76366 11.8132 6.70648 11.7822 6.63717 11.7407C6.70923 11.7542 6.76831 11.7646 6.83831 11.7857C6.89336 11.7921 6.9202 11.8129 6.97881 11.8139C7.2572 11.8182 7.40518 11.7362 7.60004 11.5706C7.62801 11.5529 7.62999 11.5575 7.64293 11.531C7.59697 11.5253 7.54732 11.5286 7.50308 11.5215C7.36817 11.5 7.25176 11.4647 7.12722 11.4145C7.09058 11.3884 7.04717 11.3631 7.00835 11.3393C6.94669 11.2843 6.90032 11.2421 6.84462 11.1822C6.82364 11.147 6.80225 11.112 6.78046 11.0772C7.01954 11.2048 7.16206 11.2935 7.45638 11.2271C7.47317 11.2233 7.4861 11.2182 7.50125 11.2099C7.55601 11.1934 7.58204 11.1855 7.63416 11.1601L7.65252 11.1497C7.59115 11.0128 7.25709 10.9848 7.20917 10.8879C7.25014 10.8744 7.26244 10.8667 7.29942 10.8447C7.27287 10.819 7.26065 10.8121 7.22936 10.7923C7.22391 10.787 7.21872 10.7814 7.21384 10.7756C7.17216 10.727 7.08161 10.5632 7.08922 10.5021L7.10259 10.4967C7.138 10.5127 7.14648 10.5306 7.16777 10.5617C7.22976 10.6429 7.32499 10.6946 7.42685 10.72C7.53818 10.767 7.73184 10.7433 7.85229 10.729L7.91569 10.7159C7.94282 10.705 7.98036 10.7027 8.01055 10.6991C7.93536 10.698 7.79448 10.5762 7.7276 10.5268L7.75529 10.4907C7.53642 10.2972 7.50978 10.1688 7.44288 9.90702C7.69275 10.3125 7.92698 10.339 8.39913 10.3236C8.07461 10.1005 7.95693 9.84019 7.95605 9.46558C8.1875 9.92976 8.27333 9.94188 8.80235 10.059C8.51325 9.68062 8.48111 9.57719 8.55169 9.1028C8.61851 9.39048 8.64592 9.53489 8.93005 9.71305C9.02779 9.77433 9.15859 9.81956 9.24904 9.88065C9.09157 9.57023 9.0753 9.26939 9.19843 8.94464C9.20571 8.92544 9.21345 8.9064 9.22164 8.88752C9.21573 9.14949 9.22111 9.3176 9.42762 9.5249C9.50676 9.60434 9.65009 9.70344 9.75357 9.75408C9.60704 9.39958 9.72504 9.09857 9.94167 8.79995Z" fill="#FDDE03"/>
    <path d="M12.2592 13.2564C12.2756 13.2751 12.2787 13.2825 12.3022 13.2891C12.4904 13.351 12.6903 13.4753 12.8701 13.5597C12.9631 13.6034 13.0657 13.6417 13.1553 13.6867C13.3776 13.7983 13.5966 13.8991 13.8291 13.9914C13.983 14.0525 14.1345 14.139 14.29 14.1994C14.4403 14.2646 14.757 14.3739 14.8877 14.464C14.8699 14.4966 14.8528 14.5377 14.8203 14.5558C14.722 14.5614 13.7893 14.0754 13.6133 13.9992C13.3008 13.864 12.9562 13.6914 12.6387 13.549C12.5721 13.5191 12.5 13.4814 12.4268 13.4435L12.2069 13.3364C12.1357 13.3183 12.1505 13.2838 12.0597 13.288L12.2592 13.2564ZM12.8945 13.3704C13.0437 13.4011 13.2187 13.5092 13.3633 13.5636C13.4787 13.607 13.6102 13.6453 13.7217 13.6925C13.9898 13.8061 14.2561 13.905 14.5322 13.9992C14.7122 14.0605 14.8894 14.1503 15.0713 14.2121L15.0049 14.3029C14.7272 14.2306 14.4782 14.1123 14.2178 14.0001C14.1093 13.9534 13.9961 13.9164 13.8867 13.8712C13.7315 13.8071 13.5793 13.7345 13.4229 13.673C13.3593 13.6481 12.9607 13.513 12.9436 13.495C12.945 13.4575 12.9146 13.4026 12.8945 13.3704ZM12.5073 12.7703C12.5329 12.7876 12.7771 12.8384 12.833 12.8537C13.7202 13.0964 14.6121 13.2997 15.5107 13.5011L15.4834 13.6339C15.1048 13.5595 14.7905 13.4468 14.4238 13.3576C14.0192 13.2591 13.6361 13.1582 13.2373 13.0402C13.0668 12.9897 12.8831 12.9601 12.708 12.8986C12.6387 12.8995 12.573 12.8737 12.5273 12.8654L12.4893 12.8644L12.4883 12.881L12.4893 12.882C12.5672 12.913 12.6684 12.9548 12.749 12.9748C13.0415 13.048 13.3199 13.1594 13.6064 13.2472C13.9855 13.3635 14.3801 13.4554 14.7559 13.5822C14.8817 13.6246 15.2855 13.6776 15.3242 13.7667C15.327 13.801 15.3202 13.8094 15.3037 13.84C15.2783 13.8558 15.265 13.8565 15.2295 13.8468C15.0344 13.7924 14.8417 13.7262 14.6504 13.6613C14.5442 13.6253 14.4151 13.6038 14.3125 13.5646C14.0005 13.4454 13.6869 13.3535 13.3652 13.2619C13.1983 13.2143 13.0237 13.1457 12.8574 13.091C12.8254 13.0875 12.7917 13.0829 12.7598 13.0851L12.7559 13.0978L12.7773 13.1261C12.8469 13.1846 13.3369 13.3454 13.4453 13.383L14.3584 13.6984C14.5837 13.7753 14.8048 13.8717 15.0371 13.9289C15.1092 13.9466 15.2246 13.9872 15.1553 14.0744C15.0921 14.1081 14.8446 13.9935 14.7637 13.9679C14.3819 13.8479 14.0123 13.6755 13.6318 13.5519C13.4831 13.5035 12.9669 13.266 12.8351 13.275C12.7991 13.2258 12.7556 13.1801 12.7143 13.1346C12.6486 13.0875 12.6012 13.0538 12.5307 13.0139C12.4122 12.9569 12.3246 12.9266 12.1938 12.9129C12.2578 12.8767 12.2959 12.8596 12.3644 12.8311L12.4485 12.7961C12.465 12.7876 12.4896 12.7779 12.5073 12.7703ZM12.4652 13.2645C12.6071 13.282 12.7448 13.3049 12.8392 13.4123C12.7059 13.4061 12.5762 13.3279 12.4652 13.2645ZM13.154 12.7748C13.2543 12.7731 13.7969 12.9263 13.9424 12.9582C14.1408 13.0016 15.5351 13.24 15.6191 13.3185C15.63 13.3289 15.6287 13.3334 15.6299 13.3478C15.6206 13.3631 15.6133 13.3825 15.5947 13.3888C15.4748 13.4283 14.2305 13.1006 14.0088 13.05C13.8779 13.02 13.7445 13.0013 13.6133 12.9728C13.4906 12.9461 13.3403 12.8879 13.2158 12.8875L13.2204 12.8731C13.1949 12.8386 13.1764 12.8112 13.154 12.7748ZM6.88281 11.9179C6.7755 11.9801 6.73295 12.2801 6.71094 12.3908C6.66139 12.2044 6.66499 12.0169 6.81881 11.8716L6.88281 11.9179ZM7.22684 12.0286C7.1445 12.0603 7.05265 12.3029 6.97168 12.3146C6.9151 12.2482 7.08498 12.0566 7.1409 12.0103L7.22684 12.0286ZM4.83594 9.02651C4.8993 9.12518 5.52123 9.86709 5.58008 9.88589C5.58795 9.88812 5.59343 9.88245 5.60059 9.87905C5.59218 9.83494 5.41051 9.58334 5.37305 9.52065C5.30082 9.39971 5.26794 9.30159 5.20898 9.1769C5.37937 9.29768 5.42383 9.42094 5.54199 9.56655C5.73179 9.80044 6.09015 10.2742 6.32324 10.4376C6.28091 10.294 6.01578 10.0533 5.91797 9.92495C5.84798 9.83292 5.79166 9.74606 5.74512 9.6398C5.71637 9.57431 5.64466 9.44393 5.6709 9.38101C5.71703 9.40081 5.83622 9.62196 5.875 9.67495C6.02871 9.8849 6.19913 10.1014 6.37695 10.2931C6.4363 10.3571 6.48485 10.4268 6.54785 10.4894C6.57955 10.5025 6.59536 10.497 6.62891 10.4914C6.5551 10.355 6.26327 10.0601 6.27051 9.95913H6.28906C6.41758 10.0352 6.62021 10.3506 6.7002 10.4796C6.79423 10.4735 7.02253 10.4614 7.11035 10.4777L7.11719 10.4689C7.08084 10.406 7.02247 10.3521 6.97852 10.2902C6.88349 10.1561 6.77639 9.94537 6.7207 9.79116L6.72461 9.79409C6.87525 9.91547 7.02526 10.1431 7.17285 10.2804C7.26035 10.3618 7.32078 10.5248 7.47559 10.5001C7.49878 10.4964 7.48527 10.5029 7.50586 10.4884C7.48682 10.4497 7.45835 10.4182 7.42969 10.3869C7.32347 10.2707 7.05548 9.7947 7.08984 9.64858L7.10449 9.63296C7.13428 9.63171 7.1242 9.62831 7.14551 9.6437C7.2351 9.92576 7.36684 10.1645 7.54688 10.4113C7.59474 10.4769 7.64984 10.4987 7.72754 10.5255L7.75529 10.4907C7.79427 10.5209 8.02639 10.6696 8.03223 10.6867L8.01055 10.6991C7.98036 10.7027 7.94282 10.705 7.91569 10.7159L7.85229 10.729C7.73184 10.7433 7.53818 10.767 7.42685 10.72C7.37602 10.7073 7.32643 10.6885 7.28223 10.6623C7.23805 10.636 7.1987 10.6022 7.16777 10.5617L7.14062 10.5236C7.13146 10.5133 7.12107 10.5042 7.10352 10.4962L7.08922 10.5021C7.08172 10.5633 7.17318 10.7269 7.21484 10.7755C7.21958 10.7812 7.22408 10.7872 7.22936 10.7923C7.26065 10.8121 7.27287 10.819 7.29942 10.8447C7.49343 10.9772 7.59169 11.059 7.83496 11.0851L7.65234 11.1486L7.65252 11.1497L7.63416 11.1601C7.58204 11.1855 7.55601 11.1934 7.50125 11.2099C7.4861 11.2182 7.47317 11.2233 7.45638 11.2271C7.16206 11.2935 7.01954 11.2048 6.78046 11.0772C6.80218 11.1119 6.82478 11.1467 6.8457 11.1818C6.90131 11.2416 6.94678 11.2844 7.00835 11.3393C7.04717 11.3631 7.09058 11.3884 7.12722 11.4145C7.25176 11.4647 7.36817 11.5 7.50308 11.5215C7.54732 11.5286 7.59697 11.5253 7.64293 11.531C7.62999 11.5575 7.62801 11.5529 7.60004 11.5706C7.40518 11.7362 7.2572 11.8182 6.97881 11.8139C6.9202 11.8129 6.89336 11.7921 6.83831 11.7857C6.84601 11.7854 6.85466 11.7843 6.8623 11.7833C6.91291 11.7771 7.02187 11.7518 7.05371 11.7121L7.0459 11.6945C6.93396 11.6244 6.57876 11.6337 6.4873 11.7365C6.48781 11.8306 6.49012 11.8848 6.46973 11.9777C6.46435 11.9465 6.45548 11.8635 6.44238 11.8146L6.42773 11.7804C6.38169 11.8098 6.26822 11.9098 6.22168 11.9494C6.26782 11.8364 6.29908 11.7931 6.39648 11.7189L6.39941 11.5529C5.99622 11.651 5.9687 11.71 5.87695 12.0705C5.84969 11.9358 5.8394 11.8715 5.8457 11.7355C6.0262 11.5421 6.23554 11.5601 6.42578 11.4523C6.47097 11.3693 6.52898 11.2841 6.57715 11.2003C6.55536 11.1836 6.50701 11.1821 6.47656 11.1789C6.42855 11.1779 5.6361 11.4633 5.53027 11.4865L5.52344 11.4796C5.6171 11.2863 6.17205 11.2187 6.33496 11.1291C6.1717 11.0807 5.70732 11.0918 5.52832 11.1427C5.45987 11.2253 5.43547 11.2821 5.39258 11.3781C5.38931 11.3854 5.3816 11.3837 5.37207 11.3849C5.33728 11.297 5.4483 11.1673 5.41797 11.0861C5.29734 11.1157 5.15992 11.1101 5.04102 11.1642C4.99341 11.1859 4.93413 11.2224 4.88477 11.2326L4.87109 11.2238C4.86292 11.0775 5.33637 11.0102 5.45996 11.007C5.61053 10.9895 5.7693 10.9885 5.9209 10.9884C5.8286 10.9185 5.66703 10.8367 5.52441 10.7921L5.3916 10.7619C5.22755 10.7596 5.0274 10.747 4.87305 10.8126C4.7704 10.8565 4.80641 10.9698 4.75488 10.9953C4.73886 10.9691 4.732 10.9244 4.7373 10.8947C4.77968 10.6587 5.18918 10.7147 5.26367 10.6642L5.25586 10.6388C5.23555 10.6295 5.18916 10.5931 5.16895 10.5783C5.04748 10.4892 4.998 10.4771 4.84961 10.4582C4.99636 10.3335 4.93422 10.4373 5.11035 10.3878C5.17364 10.3701 5.22428 10.3669 5.29004 10.3644C5.07341 10.2459 5.04099 10.2719 4.80566 10.2726C4.48401 10.2737 4.47118 10.4414 4.24121 10.6037C4.30692 10.3959 4.39064 10.2093 4.66504 10.215C4.71596 10.216 4.77383 10.2111 4.8252 10.2072C4.75132 10.1668 4.11868 10.098 4.00391 10.0314L4.00293 10.0167C4.19007 9.9104 4.86851 10.2156 4.97656 10.1632L5.01367 10.1662L5.01562 10.1789H5.01758L5.01367 10.1662L4.97656 10.1632C4.87349 10.1298 4.72532 9.99266 4.60352 9.94448C4.55769 9.92629 4.29744 9.8147 4.2793 9.798V9.78237C4.35788 9.75379 4.59217 9.87288 4.68652 9.89663C4.61302 9.81547 4.53025 9.7367 4.44434 9.66714C4.30165 9.55161 4.18141 9.54056 4.09082 9.37808C4.18397 9.42618 4.40828 9.53904 4.4873 9.58804C4.65622 9.69287 5.10181 10.0019 5.19336 10.1496C5.41554 10.2318 5.50796 10.3462 5.75684 10.3859C5.7328 10.3073 5.46228 10.183 5.37891 10.1271C5.237 10.0318 5.10438 9.92897 4.9707 9.82339C4.90309 9.76993 4.63797 9.41761 4.62793 9.35269L4.6377 9.33999C4.66731 9.34774 4.70332 9.37674 4.72363 9.39663C4.87229 9.5424 5.81848 10.2825 5.83105 10.4054L6.04688 10.4757C6.24925 10.534 6.41917 10.5734 6.60547 10.7423C6.64558 10.7787 6.93262 10.942 6.98633 10.963C7.01722 10.9471 7.01518 10.9537 7.03027 10.9289C7.00386 10.8603 6.78744 10.7963 6.7002 10.7199C6.61151 10.642 6.58202 10.6205 6.50293 10.5236C6.37185 10.5062 6.18139 10.4715 6.07715 10.3927C5.72751 10.1287 4.93179 9.44189 4.83594 9.02651ZM6.51562 9.88491C6.6046 9.98513 6.94163 10.3306 6.9375 10.4347C6.82412 10.5155 6.53 10.0264 6.48145 9.93472C6.45691 9.8975 6.42663 9.85679 6.4082 9.81558L6.39746 9.78237L6.4209 9.77847C6.44557 9.80009 6.49369 9.85882 6.51562 9.88491Z" fill="#026301"/>
    <path fill-rule="evenodd" clip-rule="evenodd" d="M16 5H4C3.44772 5 3 5.44772 3 6V14C3 14.5523 3.44772 15 4 15H16C16.5523 15 17 14.5523 17 14V6C17 5.44772 16.5523 5 16 5ZM4 4C2.89543 4 2 4.89543 2 6V14C2 15.1046 2.89543 16 4 16H16C17.1046 16 18 15.1046 18 14V6C18 4.89543 17.1046 4 16 4H4Z" fill="#303030" fill-opacity="0.1"/>
</svg>
