<svg width="20" height="20" viewBox="0 0 20 20" fill="none" xmlns="http://www.w3.org/2000/svg">
<mask id="mask0_6802_1985" style="mask-type:luminance" maskUnits="userSpaceOnUse" x="2" y="4" width="16" height="12">
<rect x="2" y="4" width="16" height="12" rx="2" fill="white"/>
</mask>
<g mask="url(#mask0_6802_1985)">
<path fill-rule="evenodd" clip-rule="evenodd" d="M2 4V16H18V4H2Z" fill="#F7FCFF"/>
<mask id="mask1_6802_1985" style="mask-type:luminance" maskUnits="userSpaceOnUse" x="2" y="4" width="16" height="12">
<path fill-rule="evenodd" clip-rule="evenodd" d="M2 4V16H18V4H2Z" fill="white"/>
</mask>
<g mask="url(#mask1_6802_1985)">
<path fill-rule="evenodd" clip-rule="evenodd" d="M2 4V8H18V4H2Z" fill="#009933"/>
<path fill-rule="evenodd" clip-rule="evenodd" d="M2 12V16H18V12H2Z" fill="#E31D1C"/>
</g>
<path fill-rule="evenodd" clip-rule="evenodd" d="M2 4V16L8 12V8L2 4Z" fill="#272727"/>
<mask id="mask2_6802_1985" style="mask-type:luminance" maskUnits="userSpaceOnUse" x="2" y="4" width="6" height="12">
<path fill-rule="evenodd" clip-rule="evenodd" d="M2 4V16L8 12V8L2 4Z" fill="white"/>
</mask>
<g mask="url(#mask2_6802_1985)">
</g>
</g>
<path fill-rule="evenodd" clip-rule="evenodd" d="M16 5H4C3.44772 5 3 5.44772 3 6V14C3 14.5523 3.44772 15 4 15H16C16.5523 15 17 14.5523 17 14V6C17 5.44772 16.5523 5 16 5ZM4 4C2.89543 4 2 4.89543 2 6V14C2 15.1046 2.89543 16 4 16H16C17.1046 16 18 15.1046 18 14V6C18 4.89543 17.1046 4 16 4H4Z" fill="#303030" fill-opacity="0.1"/>
</svg>
