<svg width="20" height="20" viewBox="0 0 20 20" fill="none" xmlns="http://www.w3.org/2000/svg">
<mask id="mask0_6802_3100" style="mask-type:luminance" maskUnits="userSpaceOnUse" x="2" y="4" width="16" height="12">
<rect x="2" y="4" width="16" height="12" rx="2" fill="white"/>
</mask>
<g mask="url(#mask0_6802_3100)">
<path fill-rule="evenodd" clip-rule="evenodd" d="M2 4V16H18V4H2Z" fill="#2E42A5"/>
<path fill-rule="evenodd" clip-rule="evenodd" d="M2 4V8H18V4H2Z" fill="#F7FCFF"/>
<path fill-rule="evenodd" clip-rule="evenodd" d="M2 12V16H18V12H2Z" fill="#C51918"/>
<path fill-rule="evenodd" clip-rule="evenodd" d="M8.87 6.51809C8.87 6.51809 7.81763 6.02112 6.50873 6.02112C5.19983 6.02112 4.14746 6.51809 4.14746 6.51809C4.14746 6.51809 4.26457 8.51544 4.44967 9.57355C4.52871 10.0253 4.90857 10.6842 5.25248 10.9961C5.64446 11.3516 6.50873 11.7727 6.50873 11.7727C6.75883 11.6004 7.22646 11.5229 7.82418 10.9961C8.4219 10.4693 8.57046 9.57355 8.57046 9.57355L8.87 6.51809Z" fill="#2E42A5"/>
<path d="M8.73089 6.45288L9.16916 6.67174L8.8683 9.68305C8.76293 10.3204 8.49927 10.823 8.07763 11.1946C7.8489 11.3962 7.62564 11.5468 7.38627 11.6719C7.25116 11.7426 6.68599 12.0337 6.69091 12.0313C6.63428 12.0586 6.59134 12.0825 6.55646 12.1066L6.5018 12.1442L6.44278 12.1155C5.8574 11.8302 5.31125 11.4463 5.03984 11.2002C4.66935 10.8642 4.27871 10.1767 4.19543 9.70063C4.0709 8.9888 3.95923 8.00835 3.88086 6.67174L4.27456 6.46577C4.35234 7.79231 4.44623 8.84977 4.56851 9.54875C4.64085 9.96229 5.00108 10.5963 5.32969 10.8943C5.57256 11.1145 5.96383 11.3588 6.5018 11.6244C6.53389 11.6056 6.56945 11.5869 6.61013 11.5673C6.61128 11.5668 6.97724 11.4043 7.10442 11.3378C7.32749 11.2211 7.53484 11.0813 7.74832 10.8931C8.12261 10.5633 8.35621 10.119 8.45068 9.55468L8.73089 6.45288Z" fill="#C51918"/>
<path fill-rule="evenodd" clip-rule="evenodd" d="M4.77148 9.51209C4.77148 9.51209 5.02935 10.301 5.48095 10.7413C5.93254 11.1817 6.49081 11.3975 6.49081 11.3975C6.49081 11.3975 7.15574 11.1963 7.53313 10.7727C7.91052 10.349 8.29687 9.51209 8.29687 9.51209L7.41922 8.6698L7.07039 9.04833L6.49081 8.22205L6.00558 9.04833L5.63351 8.6698L4.77148 9.51209Z" fill="white"/>
<path fill-rule="evenodd" clip-rule="evenodd" d="M5.57324 6.94314H5.22168L5.49435 6.6877L5.22168 6.41777H5.57324L5.72168 6.15576L5.87072 6.41777H6.22168L5.96264 6.67149L6.19265 6.94314H5.87072L5.72168 7.21964L5.57324 6.94314Z" fill="#FECA00"/>
<path fill-rule="evenodd" clip-rule="evenodd" d="M7.23047 6.94314H6.87891L7.15158 6.6877L6.87891 6.41777H7.23047L7.37891 6.15576L7.52794 6.41777H7.87891L7.61987 6.67149L7.84988 6.94314H7.52794L7.37891 7.21964L7.23047 6.94314Z" fill="#FECA00"/>
<path fill-rule="evenodd" clip-rule="evenodd" d="M6.2998 7.78372H5.94824L6.22091 7.52828L5.94824 7.25835H6.2998L6.44824 6.99634L6.59728 7.25835H6.94824L6.68921 7.51207L6.91921 7.78372H6.59728L6.44824 8.06022L6.2998 7.78372Z" fill="#FECA00"/>
</g>
<path fill-rule="evenodd" clip-rule="evenodd" d="M16 5H4C3.44772 5 3 5.44772 3 6V14C3 14.5523 3.44772 15 4 15H16C16.5523 15 17 14.5523 17 14V6C17 5.44772 16.5523 5 16 5ZM4 4C2.89543 4 2 4.89543 2 6V14C2 15.1046 2.89543 16 4 16H16C17.1046 16 18 15.1046 18 14V6C18 4.89543 17.1046 4 16 4H4Z" fill="#303030" fill-opacity="0.1"/>
</svg>
