<svg width="20" height="20" viewBox="0 0 20 20" fill="none" xmlns="http://www.w3.org/2000/svg">
<mask id="mask0_6802_3344" style="mask-type:luminance" maskUnits="userSpaceOnUse" x="2" y="4" width="16" height="12">
<rect x="2" y="4" width="16" height="12" rx="2" fill="white"/>
</mask>
<g mask="url(#mask0_6802_3344)">
<path fill-rule="evenodd" clip-rule="evenodd" d="M2 4V16H18V4H2Z" fill="#3195F9"/>
<path fill-rule="evenodd" clip-rule="evenodd" d="M2 4V16L18 4H2Z" fill="#73BE4A"/>
<path d="M1.08953 16.7196L1.43651 17.2395L1.95634 16.8925L20.0868 4.79073L20.6066 4.44375L20.2597 3.92392L19.1493 2.26044L18.8023 1.74061L18.2825 2.08759L0.152043 14.1893L-0.367793 14.5363L-0.0208126 15.0561L1.08953 16.7196Z" fill="#272727" stroke="#FFD018" stroke-width="1.25"/>
</g>
<path fill-rule="evenodd" clip-rule="evenodd" d="M16 5H4C3.44772 5 3 5.44772 3 6V14C3 14.5523 3.44772 15 4 15H16C16.5523 15 17 14.5523 17 14V6C17 5.44772 16.5523 5 16 5ZM4 4C2.89543 4 2 4.89543 2 6V14C2 15.1046 2.89543 16 4 16H16C17.1046 16 18 15.1046 18 14V6C18 4.89543 17.1046 4 16 4H4Z" fill="#303030" fill-opacity="0.1"/>
</svg>
